<?xml version="1.0" encoding="utf-8"?>
<!-- Generator: Adobe Illustrator 16.0.0, SVG Export Plug-In . SVG Version: 6.00 Build 0)  -->
<!DOCTYPE svg PUBLIC "-//W3C//DTD SVG 1.1//EN" "http://www.w3.org/Graphics/SVG/1.1/DTD/svg11.dtd">
<svg version="1.1" id="Layer_1" xmlns="http://www.w3.org/2000/svg" xmlns:xlink="http://www.w3.org/1999/xlink" x="0px" y="0px"
	 width="48.315px" height="50px" viewBox="0 0 48.315 50" enable-background="new 0 0 48.315 50" xml:space="preserve">
<g>
	<g>
		<ellipse fill="#FFFFFF" cx="23.841" cy="14.801" rx="1.061" ry="1.645"/>
		<path fill="#FFFFFF" d="M15.796,16.191c-0.465,0.333-0.426,1.187,0.092,1.907c0.512,0.72,1.309,1.038,1.773,0.706
			c0.465-0.333,0.424-1.186-0.092-1.908C17.056,16.177,16.261,15.858,15.796,16.191z"/>
		<path fill="#FFFFFF" d="M32.171,16.111c-0.482-0.32-1.279,0.027-1.775,0.773c-0.498,0.751-0.514,1.619-0.027,1.939
			c0.479,0.321,1.277-0.024,1.773-0.771C32.64,17.303,32.655,16.435,32.171,16.111z"/>
		<path fill="#FFFFFF" d="M12.208,44.229c-0.113-0.835,0.105-2.267,0.209-2.492c0.361-0.781,1.607-2.211,2.33-2.332
			c0.996-0.165,3.352-0.282,3.48-0.079C18.665,40.006,14.962,42.823,12.208,44.229z M26.3,42.487
			c-0.789-1.561-0.389-1.921-0.389-1.921c0.65-0.194,2.49,1.592,3.152,2.342c0.438,0.499,0.762,0.899,1.049,1.591
			c0,0,1.4,3.258,1.863,4.275c0.477-0.164,0.945-0.337,1.408-0.528c-0.504-0.851-1.104-1.856-1.439-2.598
			c-0.219-0.527-0.131-0.99-0.1-1.06c0.121-0.287,0.615-0.267,0.83-0.18c0.537,0.214,2.496,1.36,3.918,2.237
			c0.48-0.285,0.953-0.585,1.414-0.901c-0.393-0.243-0.814-0.517-1.17-0.775c-0.316-0.682-0.117-2.52,0.084-2.52
			c0.148,0,1.902,1.025,3.145,1.719c0.387-0.329,0.764-0.67,1.131-1.021c-1.066-0.664-2.902-1.68-4.318-2.542
			c-0.871-0.749-0.857-1.296-0.521-1.562c0.268-0.211,1.322-0.049,2.252,0.372c1.283,0.582,2.764,1.773,3.775,2.521
			c0.293-0.323,0.58-0.656,0.857-0.992c-1.002-0.729-2.541-1.686-2.043-2.103c0.33-0.271,2.293-0.342,3.785-0.304
			c0.301-0.47,0.588-0.947,0.857-1.436c-2.846,0.203-10.484,0.342-13.824,0.382c-0.637,0.009-1.121,0.013-1.383,0.013
			c-1.908,0-3.383-1.996-3.383-1.996s-1.287-6.986-0.285-9.819c0.775-2.19,6.521-6.097,8.037-7.309
			c-0.297-0.381-0.207-0.568-0.541-0.916c-1.086,0.916-5.154,4.215-6.027,3.343c-0.74-0.744,1.986-5.787,2.4-7.025
			c-0.336-0.183-0.434-0.361-0.787-0.519c-0.537,1.539-3.422,7.133-3.838,7.266c-0.52,0.166-0.582-0.254-0.582-0.254
			c-0.158-0.283,2.371-5.967,3.049-7.761c-0.496-0.186-0.635-0.261-1.154-0.389c-0.369,1.261-2.457,6.625-3.789,6.748
			c-1.494-0.037-2.949-6.238-3.123-6.919c-0.449,0.096-0.686,0.2-1.119,0.339c0.594,1.656,2.262,6.407,2.586,7.893
			c0.014-0.041,0.01,0.511-0.551,0.328c-0.416-0.136-3.076-6.023-3.541-7.589c-0.395,0.154-0.482,0.299-0.857,0.484
			c0.332,1.153,3.08,7.386,2.426,8.118c-0.691,0.774-5.182-3.089-6.48-3.948c-0.289,0.328-0.314,0.505-0.572,0.857
			c1.502,1.023,7.533,4.868,8.074,7.252c0.703,3.082-0.283,9.819-0.283,9.819s-1.475,1.996-3.385,1.996
			c-0.26,0-0.744-0.004-1.379-0.013c-3.289-0.039-10.75-0.175-13.696-0.373c0.268,0.484,0.555,0.959,0.854,1.425
			c1.472-0.034,3.339,0.042,3.659,0.306c0.486,0.406-0.961,1.323-1.963,2.045c0.275,0.339,0.559,0.671,0.854,0.995
			c1.008-0.749,2.447-1.899,3.699-2.467c0.93-0.421,1.984-0.583,2.252-0.372c0.336,0.266,0.35,0.812-0.521,1.562
			c-1.383,0.841-3.166,1.831-4.242,2.495c0.367,0.354,0.742,0.694,1.131,1.023c1.236-0.691,2.924-1.675,3.07-1.675
			c0.199,0,0.398,1.838,0.08,2.52c-0.334,0.244-0.727,0.501-1.102,0.734c0.459,0.316,0.93,0.62,1.408,0.905
			c1.416-0.873,3.33-1.99,3.857-2.2c0.217-0.087,0.709-0.107,0.832,0.18c0.029,0.069,0.1,0.485-0.1,1.06
			c-0.332,0.73-0.92,1.716-1.418,2.56c0.459,0.189,0.928,0.364,1.402,0.529c0.457-1.004,1.846-4.238,1.846-4.238
			c0.361-0.872,0.609-1.092,1.051-1.591c0.66-0.75,2.5-2.536,3.152-2.342c0,0,0.398,0.36-0.393,1.921
			c-0.371,1.104-3.66,6.86-3.66,6.86c0.521,0.132,1.053,0.245,1.586,0.346c1.025-1.971,2.619-4.893,2.906-4.858
			c0.979,0.113,0.922,3.271,0.879,5.274c0.293,0.011,0.586,0.023,0.883,0.023c0.254,0,0.504-0.013,0.756-0.02
			c-0.043-2.004-0.102-5.165,0.877-5.278c0.291-0.034,1.895,2.909,2.918,4.877c0.529-0.097,1.053-0.206,1.572-0.334
			c0-0.002-0.002-0.004-0.004-0.006C29.954,49.372,26.675,43.592,26.3,42.487z M35.126,41.737c0.102,0.226,0.322,1.657,0.211,2.492
			c-2.756-1.406-6.459-4.224-6.023-4.903c0.131-0.203,2.486-0.086,3.48,0.079C33.517,39.526,34.767,40.956,35.126,41.737z"/>
	</g>
	<g>
		<path fill="#FFFFFF" d="M22.608,3.512c0,1.142,0.391,2.497,1.555,4.026c0.029-0.034,0.047-0.056,0.078-0.098
			c0.164-0.213,0.381-0.521,0.598-0.905c0.432-0.769,0.861-1.837,0.859-3.036c-0.002-1.083-0.357-2.277-1.387-3.494
			c-0.051,0-0.1-0.005-0.15-0.005c-0.068,0-0.135,0.005-0.203,0.006c-0.146,0.169-0.318,0.385-0.496,0.664
			C23.034,1.346,22.606,2.316,22.608,3.512z"/>
		<path fill="#FFFFFF" d="M27.247,5.053c0.143-0.026,0.324-0.066,0.547-0.126c0.506-0.134,1.182-0.368,1.852-0.762
			c0.971-0.573,1.92-1.471,2.377-2.901c-0.91-0.301-1.842-0.557-2.799-0.752c-0.098,0.084-0.197,0.152-0.289,0.247
			C28.087,1.615,27.386,2.951,27.247,5.053z"/>
		<path fill="#FFFFFF" d="M18.091,3.838c1.113,0.807,2.354,1.113,2.898,1.215c-0.139-2.102-0.842-3.438-1.686-4.294
			C19.216,0.67,19.12,0.606,19.03,0.526c-0.955,0.199-1.891,0.457-2.805,0.763C16.606,2.457,17.312,3.269,18.091,3.838z"/>
		<path fill="#FFFFFF" d="M25.95,8.337c-0.789,1.193-1.021,2.524-1.086,3.095c2.59-0.354,3.939-1.487,4.666-2.65
			c0.705-1.139,0.812-2.312,0.822-2.8C28.054,6.098,26.739,7.148,25.95,8.337z"/>
		<path fill="#FFFFFF" d="M23.341,10.837c-0.105-0.538-0.307-1.256-0.68-1.97c-0.732-1.385-2.078-2.748-4.713-2.884
			c0.008,0.487,0.115,1.661,0.82,2.796c0.727,1.165,2.076,2.297,4.666,2.652C23.417,11.28,23.39,11.081,23.341,10.837z"/>
		<path fill="#FFFFFF" d="M38.808,17.512c-0.85-0.002-1.533,0.193-1.863,0.31c0.605,1.411,1.449,2.261,2.354,2.772
			c0.951,0.533,1.975,0.69,2.852,0.69c0.814,0,1.477-0.136,1.826-0.224C42.401,18.127,40.347,17.52,38.808,17.512z"/>
		<path fill="#FFFFFF" d="M42.005,16.308c1.363,1.793,2.932,2.303,4.332,2.308c0.732,0,1.416-0.141,1.979-0.317
			c-0.207-0.739-0.445-1.467-0.719-2.176c-0.928-0.525-1.809-0.716-2.59-0.718C43.565,15.402,42.44,16.024,42.005,16.308z"/>
		<path fill="#FFFFFF" d="M9.429,17.512c-1.539,0.008-3.594,0.615-5.168,3.551c0.088,0.022,0.189,0.048,0.318,0.073
			c0.375,0.073,0.906,0.148,1.51,0.148c0.873,0,1.898-0.157,2.852-0.69c0.902-0.512,1.746-1.361,2.352-2.772
			c-0.096-0.035-0.211-0.071-0.359-0.11C10.562,17.61,10.036,17.512,9.429,17.512z"/>
		<path fill="#FFFFFF" d="M6.231,16.308L6.2,16.287c-0.152-0.098-0.377-0.23-0.662-0.36c-0.568-0.265-1.369-0.522-2.308-0.522
			c-0.75,0.002-1.592,0.18-2.48,0.656C0.467,16.799,0.217,17.554,0,18.32c0.551,0.167,1.201,0.295,1.898,0.295
			C3.299,18.61,4.868,18.101,6.231,16.308z"/>
		<path fill="#FFFFFF" d="M35.88,11.625c0.131-0.03,0.301-0.072,0.506-0.138c0.482-0.152,1.121-0.404,1.758-0.807
			c1.248-0.798,2.463-2.141,2.52-4.483c-0.211-0.185-0.42-0.365-0.633-0.542c-0.465,0.124-1.059,0.335-1.652,0.721
			C37.153,7.177,35.931,8.674,35.88,11.625z"/>
		<path fill="#FFFFFF" d="M39.841,11.579c0.008,0.004,0.01,0.006,0.016,0.009c0.176,0.092,0.434,0.216,0.754,0.339
			c0.635,0.249,1.518,0.495,2.482,0.495c0.76-0.002,1.572-0.16,2.373-0.585c-0.555-0.89-1.162-1.743-1.822-2.556
			C42.487,9.471,41.181,10.088,39.841,11.579z"/>
		<path fill="#FFFFFF" d="M34.921,7.709c1.01-1.473,1.359-2.762,1.361-3.849c0-0.271-0.025-0.528-0.066-0.78
			c-0.875-0.479-1.783-0.902-2.717-1.277c-0.213,0.591-0.316,1.16-0.318,1.699C33.177,5.532,34.435,7.161,34.921,7.709z"/>
		<path fill="#FFFFFF" d="M41.708,14.226c-1.182-0.838-2.283-1.142-3.271-1.142c-2.197-0.008-3.881,1.49-4.418,2.04
			c1.369,0.808,2.562,1.101,3.57,1.101C39.872,16.23,41.282,14.745,41.708,14.226z"/>
		<path fill="#FFFFFF" d="M31.954,6.557l-0.043,0.059c-0.117,0.162-0.277,0.402-0.438,0.709c-0.318,0.61-0.637,1.478-0.635,2.506
			c0.002,1.261,0.48,2.776,2.059,4.407c0.012-0.021,0.018-0.03,0.031-0.053c0.117-0.191,0.271-0.472,0.428-0.817
			c0.314-0.693,0.623-1.651,0.623-2.704C33.974,9.357,33.505,7.908,31.954,6.557z"/>
		<path fill="#FFFFFF" d="M12.351,11.633c0-0.002,0-0.002,0-0.006c0.002-0.585-0.084-1.967-0.76-3.257
			c-0.588-1.112-1.6-2.156-3.402-2.628c-0.234,0.191-0.459,0.39-0.682,0.589c0.029,0.723,0.195,1.73,0.824,2.708
			C9.005,10.083,10.202,11.087,12.351,11.633z"/>
		<path fill="#FFFFFF" d="M13.212,7.766c0.033-0.038,0.059-0.062,0.102-0.115c0.18-0.216,0.422-0.53,0.66-0.926
			c0.48-0.791,0.957-1.896,0.955-3.146c0-0.538-0.098-1.104-0.314-1.695c-0.939,0.39-1.85,0.833-2.73,1.327
			C11.854,3.433,11.831,3.66,11.831,3.9C11.831,4.991,12.187,6.288,13.212,7.766z"/>
		<path fill="#FFFFFF" d="M8.315,11.664C6.999,10.22,5.722,9.6,4.587,9.4c-0.66,0.825-1.272,1.688-1.825,2.592
			c0.769,0.387,1.544,0.529,2.274,0.53C6.515,12.524,7.794,11.939,8.315,11.664z"/>
		<path fill="#FFFFFF" d="M14.222,10.647c-0.002,1.644,0.762,3.059,1.1,3.6c1.559-1.629,2.033-3.139,2.037-4.393
			c0.002-1.63-0.799-2.854-1.135-3.297C14.69,7.908,14.226,9.349,14.222,10.647z"/>
		<path fill="#FFFFFF" d="M13.112,14.232c-0.82-0.562-1.971-1.112-3.311-1.111c-0.996,0-2.104,0.306-3.289,1.157
			c0.039,0.047,0.068,0.086,0.125,0.147c0.184,0.204,0.457,0.476,0.818,0.748c0.721,0.544,1.777,1.084,3.156,1.084
			c1.016,0,2.213-0.299,3.594-1.118c-0.045-0.047-0.078-0.082-0.139-0.138C13.847,14.792,13.522,14.512,13.112,14.232z"/>
	</g>
</g>
</svg>
